<svg xmlns="http://www.w3.org/2000/svg" width="1159" height="771" viewBox="0 0 1159 771"><rect width="1159" height="771" fill="#ffffff"/><rect x="48" y="0" width="48" height="48" fill="#eceae4"/><rect x="144" y="0" width="48" height="48" fill="#eceae4"/><rect x="240" y="0" width="48" height="48" fill="#eceae4"/><rect x="336" y="0" width="48" height="48" fill="#eceae4"/><rect x="432" y="0" width="48" height="48" fill="#eceae4"/><rect x="528" y="0" width="48" height="48" fill="#eceae4"/><rect x="624" y="0" width="48" height="48" fill="#eceae4"/><rect x="720" y="0" width="48" height="48" fill="#eceae4"/><rect x="816" y="0" width="48" height="48" fill="#eceae4"/><rect x="912" y="0" width="48" height="48" fill="#eceae4"/><rect x="1008" y="0" width="48" height="48" fill="#eceae4"/><rect x="1104" y="0" width="48" height="48" fill="#eceae4"/><rect x="0" y="48" width="48" height="48" fill="#eceae4"/><rect x="96" y="48" width="48" height="48" fill="#eceae4"/><rect x="192" y="48" width="48" height="48" fill="#eceae4"/><rect x="288" y="48" width="48" height="48" fill="#eceae4"/><rect x="384" y="48" width="48" height="48" fill="#eceae4"/><rect x="480" y="48" width="48" height="48" fill="#eceae4"/><rect x="576" y="48" width="48" height="48" fill="#eceae4"/><rect x="672" y="48" width="48" height="48" fill="#eceae4"/><rect x="768" y="48" width="48" height="48" fill="#eceae4"/><rect x="864" y="48" width="48" height="48" fill="#eceae4"/><rect x="960" y="48" width="48" height="48" fill="#eceae4"/><rect x="1056" y="48" width="48" height="48" fill="#eceae4"/><rect x="1152" y="48" width="48" height="48" fill="#eceae4"/><rect x="48" y="96" width="48" height="48" fill="#eceae4"/><rect x="144" y="96" width="48" height="48" fill="#eceae4"/><rect x="240" y="96" width="48" height="48" fill="#eceae4"/><rect x="336" y="96" width="48" height="48" fill="#eceae4"/><rect x="432" y="96" width="48" height="48" fill="#eceae4"/><rect x="528" y="96" width="48" height="48" fill="#eceae4"/><rect x="624" y="96" width="48" height="48" fill="#eceae4"/><rect x="720" y="96" width="48" height="48" fill="#eceae4"/><rect x="816" y="96" width="48" height="48" fill="#eceae4"/><rect x="912" y="96" width="48" height="48" fill="#eceae4"/><rect x="1008" y="96" width="48" height="48" fill="#eceae4"/><rect x="1104" y="96" width="48" height="48" fill="#eceae4"/><rect x="0" y="144" width="48" height="48" fill="#eceae4"/><rect x="96" y="144" width="48" height="48" fill="#eceae4"/><rect x="192" y="144" width="48" height="48" fill="#eceae4"/><rect x="288" y="144" width="48" height="48" fill="#eceae4"/><rect x="384" y="144" width="48" height="48" fill="#eceae4"/><rect x="480" y="144" width="48" height="48" fill="#eceae4"/><rect x="576" y="144" width="48" height="48" fill="#eceae4"/><rect x="672" y="144" width="48" height="48" fill="#eceae4"/><rect x="768" y="144" width="48" height="48" fill="#eceae4"/><rect x="864" y="144" width="48" height="48" fill="#eceae4"/><rect x="960" y="144" width="48" height="48" fill="#eceae4"/><rect x="1056" y="144" width="48" height="48" fill="#eceae4"/><rect x="1152" y="144" width="48" height="48" fill="#eceae4"/><rect x="48" y="192" width="48" height="48" fill="#eceae4"/><rect x="144" y="192" width="48" height="48" fill="#eceae4"/><rect x="240" y="192" width="48" height="48" fill="#eceae4"/><rect x="336" y="192" width="48" height="48" fill="#eceae4"/><rect x="432" y="192" width="48" height="48" fill="#eceae4"/><rect x="528" y="192" width="48" height="48" fill="#eceae4"/><rect x="624" y="192" width="48" height="48" fill="#eceae4"/><rect x="720" y="192" width="48" height="48" fill="#eceae4"/><rect x="816" y="192" width="48" height="48" fill="#eceae4"/><rect x="912" y="192" width="48" height="48" fill="#eceae4"/><rect x="1008" y="192" width="48" height="48" fill="#eceae4"/><rect x="1104" y="192" width="48" height="48" fill="#eceae4"/><rect x="0" y="240" width="48" height="48" fill="#eceae4"/><rect x="96" y="240" width="48" height="48" fill="#eceae4"/><rect x="192" y="240" width="48" height="48" fill="#eceae4"/><rect x="288" y="240" width="48" height="48" fill="#eceae4"/><rect x="384" y="240" width="48" height="48" fill="#eceae4"/><rect x="480" y="240" width="48" height="48" fill="#eceae4"/><rect x="576" y="240" width="48" height="48" fill="#eceae4"/><rect x="672" y="240" width="48" height="48" fill="#eceae4"/><rect x="768" y="240" width="48" height="48" fill="#eceae4"/><rect x="864" y="240" width="48" height="48" fill="#eceae4"/><rect x="960" y="240" width="48" height="48" fill="#eceae4"/><rect x="1056" y="240" width="48" height="48" fill="#eceae4"/><rect x="1152" y="240" width="48" height="48" fill="#eceae4"/><rect x="48" y="288" width="48" height="48" fill="#eceae4"/><rect x="144" y="288" width="48" height="48" fill="#eceae4"/><rect x="240" y="288" width="48" height="48" fill="#eceae4"/><rect x="336" y="288" width="48" height="48" fill="#eceae4"/><rect x="432" y="288" width="48" height="48" fill="#eceae4"/><rect x="528" y="288" width="48" height="48" fill="#eceae4"/><rect x="624" y="288" width="48" height="48" fill="#eceae4"/><rect x="720" y="288" width="48" height="48" fill="#eceae4"/><rect x="816" y="288" width="48" height="48" fill="#eceae4"/><rect x="912" y="288" width="48" height="48" fill="#eceae4"/><rect x="1008" y="288" width="48" height="48" fill="#eceae4"/><rect x="1104" y="288" width="48" height="48" fill="#eceae4"/><rect x="0" y="336" width="48" height="48" fill="#eceae4"/><rect x="96" y="336" width="48" height="48" fill="#eceae4"/><rect x="192" y="336" width="48" height="48" fill="#eceae4"/><rect x="288" y="336" width="48" height="48" fill="#eceae4"/><rect x="384" y="336" width="48" height="48" fill="#eceae4"/><rect x="480" y="336" width="48" height="48" fill="#eceae4"/><rect x="576" y="336" width="48" height="48" fill="#eceae4"/><rect x="672" y="336" width="48" height="48" fill="#eceae4"/><rect x="768" y="336" width="48" height="48" fill="#eceae4"/><rect x="864" y="336" width="48" height="48" fill="#eceae4"/><rect x="960" y="336" width="48" height="48" fill="#eceae4"/><rect x="1056" y="336" width="48" height="48" fill="#eceae4"/><rect x="1152" y="336" width="48" height="48" fill="#eceae4"/><rect x="48" y="384" width="48" height="48" fill="#eceae4"/><rect x="144" y="384" width="48" height="48" fill="#eceae4"/><rect x="240" y="384" width="48" height="48" fill="#eceae4"/><rect x="336" y="384" width="48" height="48" fill="#eceae4"/><rect x="432" y="384" width="48" height="48" fill="#eceae4"/><rect x="528" y="384" width="48" height="48" fill="#eceae4"/><rect x="624" y="384" width="48" height="48" fill="#eceae4"/><rect x="720" y="384" width="48" height="48" fill="#eceae4"/><rect x="816" y="384" width="48" height="48" fill="#eceae4"/><rect x="912" y="384" width="48" height="48" fill="#eceae4"/><rect x="1008" y="384" width="48" height="48" fill="#eceae4"/><rect x="1104" y="384" width="48" height="48" fill="#eceae4"/><rect x="0" y="432" width="48" height="48" fill="#eceae4"/><rect x="96" y="432" width="48" height="48" fill="#eceae4"/><rect x="192" y="432" width="48" height="48" fill="#eceae4"/><rect x="288" y="432" width="48" height="48" fill="#eceae4"/><rect x="384" y="432" width="48" height="48" fill="#eceae4"/><rect x="480" y="432" width="48" height="48" fill="#eceae4"/><rect x="576" y="432" width="48" height="48" fill="#eceae4"/><rect x="672" y="432" width="48" height="48" fill="#eceae4"/><rect x="768" y="432" width="48" height="48" fill="#eceae4"/><rect x="864" y="432" width="48" height="48" fill="#eceae4"/><rect x="960" y="432" width="48" height="48" fill="#eceae4"/><rect x="1056" y="432" width="48" height="48" fill="#eceae4"/><rect x="1152" y="432" width="48" height="48" fill="#eceae4"/><rect x="48" y="480" width="48" height="48" fill="#eceae4"/><rect x="144" y="480" width="48" height="48" fill="#eceae4"/><rect x="240" y="480" width="48" height="48" fill="#eceae4"/><rect x="336" y="480" width="48" height="48" fill="#eceae4"/><rect x="432" y="480" width="48" height="48" fill="#eceae4"/><rect x="528" y="480" width="48" height="48" fill="#eceae4"/><rect x="624" y="480" width="48" height="48" fill="#eceae4"/><rect x="720" y="480" width="48" height="48" fill="#eceae4"/><rect x="816" y="480" width="48" height="48" fill="#eceae4"/><rect x="912" y="480" width="48" height="48" fill="#eceae4"/><rect x="1008" y="480" width="48" height="48" fill="#eceae4"/><rect x="1104" y="480" width="48" height="48" fill="#eceae4"/><rect x="0" y="528" width="48" height="48" fill="#eceae4"/><rect x="96" y="528" width="48" height="48" fill="#eceae4"/><rect x="192" y="528" width="48" height="48" fill="#eceae4"/><rect x="288" y="528" width="48" height="48" fill="#eceae4"/><rect x="384" y="528" width="48" height="48" fill="#eceae4"/><rect x="480" y="528" width="48" height="48" fill="#eceae4"/><rect x="576" y="528" width="48" height="48" fill="#eceae4"/><rect x="672" y="528" width="48" height="48" fill="#eceae4"/><rect x="768" y="528" width="48" height="48" fill="#eceae4"/><rect x="864" y="528" width="48" height="48" fill="#eceae4"/><rect x="960" y="528" width="48" height="48" fill="#eceae4"/><rect x="1056" y="528" width="48" height="48" fill="#eceae4"/><rect x="1152" y="528" width="48" height="48" fill="#eceae4"/><rect x="48" y="576" width="48" height="48" fill="#eceae4"/><rect x="144" y="576" width="48" height="48" fill="#eceae4"/><rect x="240" y="576" width="48" height="48" fill="#eceae4"/><rect x="336" y="576" width="48" height="48" fill="#eceae4"/><rect x="432" y="576" width="48" height="48" fill="#eceae4"/><rect x="528" y="576" width="48" height="48" fill="#eceae4"/><rect x="624" y="576" width="48" height="48" fill="#eceae4"/><rect x="720" y="576" width="48" height="48" fill="#eceae4"/><rect x="816" y="576" width="48" height="48" fill="#eceae4"/><rect x="912" y="576" width="48" height="48" fill="#eceae4"/><rect x="1008" y="576" width="48" height="48" fill="#eceae4"/><rect x="1104" y="576" width="48" height="48" fill="#eceae4"/><rect x="0" y="624" width="48" height="48" fill="#eceae4"/><rect x="96" y="624" width="48" height="48" fill="#eceae4"/><rect x="192" y="624" width="48" height="48" fill="#eceae4"/><rect x="288" y="624" width="48" height="48" fill="#eceae4"/><rect x="384" y="624" width="48" height="48" fill="#eceae4"/><rect x="480" y="624" width="48" height="48" fill="#eceae4"/><rect x="576" y="624" width="48" height="48" fill="#eceae4"/><rect x="672" y="624" width="48" height="48" fill="#eceae4"/><rect x="768" y="624" width="48" height="48" fill="#eceae4"/><rect x="864" y="624" width="48" height="48" fill="#eceae4"/><rect x="960" y="624" width="48" height="48" fill="#eceae4"/><rect x="1056" y="624" width="48" height="48" fill="#eceae4"/><rect x="1152" y="624" width="48" height="48" fill="#eceae4"/><rect x="48" y="672" width="48" height="48" fill="#eceae4"/><rect x="144" y="672" width="48" height="48" fill="#eceae4"/><rect x="240" y="672" width="48" height="48" fill="#eceae4"/><rect x="336" y="672" width="48" height="48" fill="#eceae4"/><rect x="432" y="672" width="48" height="48" fill="#eceae4"/><rect x="528" y="672" width="48" height="48" fill="#eceae4"/><rect x="624" y="672" width="48" height="48" fill="#eceae4"/><rect x="720" y="672" width="48" height="48" fill="#eceae4"/><rect x="816" y="672" width="48" height="48" fill="#eceae4"/><rect x="912" y="672" width="48" height="48" fill="#eceae4"/><rect x="1008" y="672" width="48" height="48" fill="#eceae4"/><rect x="1104" y="672" width="48" height="48" fill="#eceae4"/><rect x="0" y="720" width="48" height="48" fill="#eceae4"/><rect x="96" y="720" width="48" height="48" fill="#eceae4"/><rect x="192" y="720" width="48" height="48" fill="#eceae4"/><rect x="288" y="720" width="48" height="48" fill="#eceae4"/><rect x="384" y="720" width="48" height="48" fill="#eceae4"/><rect x="480" y="720" width="48" height="48" fill="#eceae4"/><rect x="576" y="720" width="48" height="48" fill="#eceae4"/><rect x="672" y="720" width="48" height="48" fill="#eceae4"/><rect x="768" y="720" width="48" height="48" fill="#eceae4"/><rect x="864" y="720" width="48" height="48" fill="#eceae4"/><rect x="960" y="720" width="48" height="48" fill="#eceae4"/><rect x="1056" y="720" width="48" height="48" fill="#eceae4"/><rect x="1152" y="720" width="48" height="48" fill="#eceae4"/><rect x="48" y="768" width="48" height="48" fill="#eceae4"/><rect x="144" y="768" width="48" height="48" fill="#eceae4"/><rect x="240" y="768" width="48" height="48" fill="#eceae4"/><rect x="336" y="768" width="48" height="48" fill="#eceae4"/><rect x="432" y="768" width="48" height="48" fill="#eceae4"/><rect x="528" y="768" width="48" height="48" fill="#eceae4"/><rect x="624" y="768" width="48" height="48" fill="#eceae4"/><rect x="720" y="768" width="48" height="48" fill="#eceae4"/><rect x="816" y="768" width="48" height="48" fill="#eceae4"/><rect x="912" y="768" width="48" height="48" fill="#eceae4"/><rect x="1008" y="768" width="48" height="48" fill="#eceae4"/><rect x="1104" y="768" width="48" height="48" fill="#eceae4"/><rect x="-1" y="0" width="2" height="26" fill="#146ef5"/><rect x="-1" y="745" width="2" height="26" fill="#146ef5"/><rect x="0" y="-1" width="26" height="2" fill="#146ef5"/><rect x="1133" y="-1" width="26" height="2" fill="#146ef5"/><rect x="57" y="0" width="2" height="14.3" fill="#9a968c"/><rect x="57" y="756.7" width="2" height="14.3" fill="#9a968c"/><rect x="0" y="38" width="14.3" height="2" fill="#9a968c"/><rect x="1144.7" y="38" width="14.3" height="2" fill="#9a968c"/><rect x="115" y="0" width="2" height="14.3" fill="#9a968c"/><rect x="115" y="756.7" width="2" height="14.3" fill="#9a968c"/><rect x="0" y="76" width="14.3" height="2" fill="#9a968c"/><rect x="1144.7" y="76" width="14.3" height="2" fill="#9a968c"/><rect x="173" y="0" width="2" height="14.3" fill="#9a968c"/><rect x="173" y="756.7" width="2" height="14.3" fill="#9a968c"/><rect x="0" y="115" width="14.3" height="2" fill="#9a968c"/><rect x="1144.7" y="115" width="14.3" height="2" fill="#9a968c"/><rect x="231" y="0" width="2" height="26" fill="#146ef5"/><rect x="231" y="745" width="2" height="26" fill="#146ef5"/><rect x="0" y="153" width="26" height="2" fill="#146ef5"/><rect x="1133" y="153" width="26" height="2" fill="#146ef5"/><text x="232" y="45" font-size="15" fill="#146ef5" text-anchor="middle" font-family="monospace">20</text><text x="232" y="737" font-size="15" fill="#146ef5" text-anchor="middle" font-family="monospace">20</text><text x="32" y="159" font-size="15" fill="#146ef5" font-family="monospace">20</text><text x="1127" y="159" font-size="15" fill="#146ef5" text-anchor="end" font-family="monospace">20</text><rect x="289" y="0" width="2" height="14.3" fill="#9a968c"/><rect x="289" y="756.7" width="2" height="14.3" fill="#9a968c"/><rect x="0" y="192" width="14.3" height="2" fill="#9a968c"/><rect x="1144.7" y="192" width="14.3" height="2" fill="#9a968c"/><rect x="347" y="0" width="2" height="14.3" fill="#9a968c"/><rect x="347" y="756.7" width="2" height="14.3" fill="#9a968c"/><rect x="0" y="230" width="14.3" height="2" fill="#9a968c"/><rect x="1144.7" y="230" width="14.3" height="2" fill="#9a968c"/><rect x="405" y="0" width="2" height="14.3" fill="#9a968c"/><rect x="405" y="756.7" width="2" height="14.3" fill="#9a968c"/><rect x="0" y="269" width="14.3" height="2" fill="#9a968c"/><rect x="1144.7" y="269" width="14.3" height="2" fill="#9a968c"/><rect x="463" y="0" width="2" height="26" fill="#146ef5"/><rect x="463" y="745" width="2" height="26" fill="#146ef5"/><rect x="0" y="307" width="26" height="2" fill="#146ef5"/><rect x="1133" y="307" width="26" height="2" fill="#146ef5"/><text x="464" y="45" font-size="15" fill="#146ef5" text-anchor="middle" font-family="monospace">40</text><text x="464" y="737" font-size="15" fill="#146ef5" text-anchor="middle" font-family="monospace">40</text><text x="32" y="313" font-size="15" fill="#146ef5" font-family="monospace">40</text><text x="1127" y="313" font-size="15" fill="#146ef5" text-anchor="end" font-family="monospace">40</text><rect x="521" y="0" width="2" height="14.3" fill="#9a968c"/><rect x="521" y="756.7" width="2" height="14.3" fill="#9a968c"/><rect x="0" y="346" width="14.3" height="2" fill="#9a968c"/><rect x="1144.7" y="346" width="14.3" height="2" fill="#9a968c"/><rect x="579" y="0" width="2" height="14.3" fill="#9a968c"/><rect x="579" y="756.7" width="2" height="14.3" fill="#9a968c"/><rect x="0" y="385" width="14.3" height="2" fill="#9a968c"/><rect x="1144.7" y="385" width="14.3" height="2" fill="#9a968c"/><rect x="636" y="0" width="2" height="14.3" fill="#9a968c"/><rect x="636" y="756.7" width="2" height="14.3" fill="#9a968c"/><rect x="0" y="423" width="14.3" height="2" fill="#9a968c"/><rect x="1144.7" y="423" width="14.3" height="2" fill="#9a968c"/><rect x="694" y="0" width="2" height="26" fill="#146ef5"/><rect x="694" y="745" width="2" height="26" fill="#146ef5"/><rect x="0" y="462" width="26" height="2" fill="#146ef5"/><rect x="1133" y="462" width="26" height="2" fill="#146ef5"/><text x="695" y="45" font-size="15" fill="#146ef5" text-anchor="middle" font-family="monospace">60</text><text x="695" y="737" font-size="15" fill="#146ef5" text-anchor="middle" font-family="monospace">60</text><text x="32" y="468" font-size="15" fill="#146ef5" font-family="monospace">60</text><text x="1127" y="468" font-size="15" fill="#146ef5" text-anchor="end" font-family="monospace">60</text><rect x="752" y="0" width="2" height="14.3" fill="#9a968c"/><rect x="752" y="756.7" width="2" height="14.3" fill="#9a968c"/><rect x="0" y="500" width="14.3" height="2" fill="#9a968c"/><rect x="1144.7" y="500" width="14.3" height="2" fill="#9a968c"/><rect x="810" y="0" width="2" height="14.3" fill="#9a968c"/><rect x="810" y="756.7" width="2" height="14.3" fill="#9a968c"/><rect x="0" y="539" width="14.3" height="2" fill="#9a968c"/><rect x="1144.7" y="539" width="14.3" height="2" fill="#9a968c"/><rect x="868" y="0" width="2" height="14.3" fill="#9a968c"/><rect x="868" y="756.7" width="2" height="14.3" fill="#9a968c"/><rect x="0" y="577" width="14.3" height="2" fill="#9a968c"/><rect x="1144.7" y="577" width="14.3" height="2" fill="#9a968c"/><rect x="926" y="0" width="2" height="26" fill="#146ef5"/><rect x="926" y="745" width="2" height="26" fill="#146ef5"/><rect x="0" y="616" width="26" height="2" fill="#146ef5"/><rect x="1133" y="616" width="26" height="2" fill="#146ef5"/><text x="927" y="45" font-size="15" fill="#146ef5" text-anchor="middle" font-family="monospace">80</text><text x="927" y="737" font-size="15" fill="#146ef5" text-anchor="middle" font-family="monospace">80</text><text x="32" y="622" font-size="15" fill="#146ef5" font-family="monospace">80</text><text x="1127" y="622" font-size="15" fill="#146ef5" text-anchor="end" font-family="monospace">80</text><rect x="984" y="0" width="2" height="14.3" fill="#9a968c"/><rect x="984" y="756.7" width="2" height="14.3" fill="#9a968c"/><rect x="0" y="654" width="14.3" height="2" fill="#9a968c"/><rect x="1144.7" y="654" width="14.3" height="2" fill="#9a968c"/><rect x="1042" y="0" width="2" height="14.3" fill="#9a968c"/><rect x="1042" y="756.7" width="2" height="14.3" fill="#9a968c"/><rect x="0" y="693" width="14.3" height="2" fill="#9a968c"/><rect x="1144.7" y="693" width="14.3" height="2" fill="#9a968c"/><rect x="1100" y="0" width="2" height="14.3" fill="#9a968c"/><rect x="1100" y="756.7" width="2" height="14.3" fill="#9a968c"/><rect x="0" y="731" width="14.3" height="2" fill="#9a968c"/><rect x="1144.7" y="731" width="14.3" height="2" fill="#9a968c"/><rect x="1158" y="0" width="2" height="26" fill="#146ef5"/><rect x="1158" y="745" width="2" height="26" fill="#146ef5"/><rect x="0" y="770" width="26" height="2" fill="#146ef5"/><rect x="1133" y="770" width="26" height="2" fill="#146ef5"/><circle cx="116" cy="386" r="85" fill="none" stroke="#146ef5" stroke-width="4"/><rect x="31" y="301" width="170" height="170" fill="none" stroke="#9a968c" stroke-width="1.5"/><circle cx="348" cy="386" r="85" fill="none" stroke="#146ef5" stroke-width="4"/><rect x="263" y="301" width="170" height="170" fill="none" stroke="#9a968c" stroke-width="1.5"/><circle cx="580" cy="386" r="85" fill="none" stroke="#146ef5" stroke-width="4"/><rect x="495" y="301" width="170" height="170" fill="none" stroke="#9a968c" stroke-width="1.5"/><circle cx="811" cy="386" r="85" fill="none" stroke="#146ef5" stroke-width="4"/><rect x="726" y="301" width="170" height="170" fill="none" stroke="#9a968c" stroke-width="1.5"/><circle cx="1043" cy="386" r="85" fill="none" stroke="#146ef5" stroke-width="4"/><rect x="958" y="301" width="170" height="170" fill="none" stroke="#9a968c" stroke-width="1.5"/><text x="40" y="62" font-size="34" font-weight="700" fill="#146ef5" text-anchor="start" font-family="monospace">TL</text><text x="1119" y="62" font-size="34" font-weight="700" fill="#146ef5" text-anchor="end" font-family="monospace">TR</text><text x="40" y="727" font-size="34" font-weight="700" fill="#146ef5" text-anchor="start" font-family="monospace">BL</text><text x="1119" y="727" font-size="34" font-weight="700" fill="#146ef5" text-anchor="end" font-family="monospace">BR</text><text x="579.5" y="272.5" font-size="30" font-weight="700" fill="#101010" text-anchor="middle" font-family="monospace">1159 x 771</text><text x="579.5" y="516.5" font-size="22" fill="#101010" text-anchor="middle" font-family="monospace">HOLE ASPECT — 1.5032</text><rect x="3" y="3" width="1153" height="765" fill="none" stroke="#146ef5" stroke-width="6"/></svg>